<svg width="60" height="60" viewBox="0 0 60 60" fill="none" xmlns="http://www.w3.org/2000/svg">
<g clip-path="url(#clip0_104_2802)">
<path d="M55.3479 31.102V3.77976C55.3479 2.80502 54.5576 2.01477 53.5829 2.01477H6.29505C5.3203 2.01477 4.53006 2.80502 4.53006 3.77976V33.2801C3.67863 33.4042 2.84626 33.7347 2.10991 34.2814C-0.211409 35.9274 -0.760439 39.6111 1.18399 41.8828L9.13386 51.5205C14.0549 57.2799 19.2824 57.9855 27.0538 57.9855C33.7228 57.9855 36.7043 58.015 42.5164 56.6906L48.1759 55.337C49.0936 56.6185 50.5504 57.4486 52.1882 57.4486H54.9762C57.7463 57.4486 59.9999 55.0745 59.9999 52.1562V36.3785C60 33.5921 57.9449 31.3032 55.3479 31.102ZM47.4146 34.7327L45.0629 33.5383C41.1963 31.5866 36.7258 31.5143 32.7981 33.3404C31.7265 33.7619 29.3893 35.176 28.177 35.1287H20.0167C17.3099 35.1287 15.1076 37.3308 15.1076 40.0377V41.3249C15.0925 41.3089 15.0766 41.2937 15.0616 41.2774L9.23423 34.9521C8.88158 34.5693 8.4854 34.249 8.06016 33.992V16.4811H22.504V22.9511C22.504 23.9258 23.2943 24.7161 24.269 24.7161H35.4062C36.3809 24.7161 37.1712 23.9258 37.1712 22.9511V16.4811H51.818V31.1019C49.7558 31.2612 48.0362 32.7365 47.4146 34.7327ZM26.0339 16.4811H33.6411V21.1861H26.0339V16.4811ZM51.8179 12.9511H37.1712V5.54475H51.818V12.9511H51.8179ZM33.6412 5.54475V12.9512H26.034V5.54475H33.6412ZM22.5039 5.54475V12.9512H8.06004V5.54475H22.5039ZM41.6972 53.2569C36.3281 54.4866 33.0945 54.4368 27.1171 54.4368C19.8218 54.4368 16.2969 54.3189 11.8571 49.2741L3.90725 39.6365C2.52444 37.8358 5.02908 35.7102 6.63804 37.3436L12.4655 43.6691C14.0056 45.2942 15.9437 46.1886 18.3324 46.2412H34.4889C35.4636 46.2412 36.2539 45.4509 36.2539 44.4762C36.2539 43.5014 35.4636 42.7112 34.4889 42.7112H18.6375V40.0375C18.6375 39.2771 19.2561 38.6584 20.0165 38.6584H28.1769C30.0153 38.7901 32.6688 37.255 34.2863 36.5411C37.2279 35.1734 40.5762 35.2275 43.4683 36.6873L47.1647 38.5648V51.949L41.6972 53.2569ZM56.4701 52.1561C56.4701 53.1279 55.7999 53.9185 54.9763 53.9185H52.1883C51.3646 53.9185 50.6947 53.1279 50.6947 52.1561V36.3785C50.6947 35.4067 51.3648 34.616 52.1883 34.616H54.9763C55.7999 34.616 56.4701 35.4066 56.4701 36.3785V52.1561Z" fill="#242424"/>
</g>
<defs>
<clipPath id="clip0_104_2802">
<rect width="60" height="60" fill="white"/>
</clipPath>
</defs>
</svg>
